<svg xmlns="http://www.w3.org/2000/svg" width="48" height="48" viewBox="0 0 48 48">
  <g>
    <path fill="#4285F4" d="M43.611 20.083h-1.611v-.083H24v8h11.277c-1.627 4.627-6.022 8-11.277 8-6.627 0-12-5.373-12-12s5.373-12 12-12c3.045 0 5.82 1.117 7.963 2.949l6.037-6.037C34.484 6.797 29.523 4.667 24 4.667c-10.477 0-19 8.523-19 19s8.523 19 19 19c9.477 0 18.5-7.5 18.5-19 0-1.273-.137-2.517-.389-3.75z"/>
    <path fill="#34A853" d="M6.306 14.691l6.573 4.823C14.484 16.797 19.523 14.667 24 14.667c3.045 0 5.82 1.117 7.963 2.949l6.037-6.037C34.484 6.797 29.523 4.667 24 4.667c-6.627 0-12 5.373-12 12 0 1.273.137 2.517.389 3.75z"/>
    <path fill="#FBBC05" d="M24 44.667c5.523 0 10.484-2.13 14.277-5.611l-6.963-5.684C29.82 38.883 27.045 40 24 40c-6.627 0-12-5.373-12-12 0-1.273.137-2.517.389-3.75l-6.573-4.823C4.137 21.483 4 22.727 4 24c0 10.477 8.523 19 19 19z"/>
    <path fill="#EA4335" d="M43.611 20.083h-1.611v-.083H24v8h11.277c-.627 1.783-1.627 3.373-2.963 4.684l6.963 5.684C41.863 38.517 44 31.273 44 24c0-1.273-.137-2.517-.389-3.75z"/>
  </g>
</svg>
